<?xml version="1.0" encoding="UTF-8"?>
<svg version="1.1" xmlns="http://www.w3.org/2000/svg" width="100" height="100">
<path d="M0 0 C33 0 66 0 100 0 C100 23.76 100 47.52 100 72 C67 72 34 72 0 72 C0 48.24 0 24.48 0 0 Z M4 4 C3.46383745 8.70053019 3.46383745 8.70053019 5.30664062 10.5546875 C5.91701172 10.99039062 6.52738281 11.42609375 7.15625 11.875 C7.84114502 12.37870117 8.52604004 12.88240234 9.23168945 13.40136719 C9.98023193 13.92891602 10.72877441 14.45646484 11.5 15 C13.06813799 16.14868129 14.63450237 17.29978719 16.19921875 18.453125 C17.40070557 19.33194336 17.40070557 19.33194336 18.62646484 20.22851562 C22.28176453 22.95664302 25.79456149 25.84835522 29.3125 28.75 C31.2591282 30.33484221 33.20813973 31.91671841 35.15722656 33.49853516 C36.36876709 34.48568066 37.57657813 35.4774244 38.78027344 36.47412109 C40.40268905 37.81286849 42.04179632 39.1275644 43.6875 40.4375 C44.59886719 41.17871094 45.51023438 41.91992188 46.44921875 42.68359375 C48.88630843 44.26660079 48.88630843 44.26660079 51.37890625 43.5859375 C54.95082046 41.42468986 58.06328957 38.87595616 61.25 36.1875 C67.05660886 31.37582668 72.93368091 26.68843648 78.9375 22.125 C80.0061731 21.30745239 80.0061731 21.30745239 81.09643555 20.47338867 C84.06177854 18.20933035 87.03509444 15.97490703 90.0703125 13.8046875 C91.30394531 12.91136719 91.30394531 12.91136719 92.5625 12 C93.24441406 11.525625 93.92632812 11.05125 94.62890625 10.5625 C96.54964019 8.72009187 96.54964019 8.72009187 96 4 C65.64 4 35.28 4 4 4 Z M4 15 C4 32.49 4 49.98 4 68 C34.36 68 64.72 68 96 68 C96 50.51 96 33.02 96 15 C91.10723979 18.66957016 86.23777639 22.33985116 81.4375 26.125 C80.5556604 26.81843506 80.5556604 26.81843506 79.65600586 27.52587891 C76.42735841 30.06945531 73.21156659 32.62826175 70.0078125 35.203125 C69.01890015 35.99759033 69.01890015 35.99759033 68.01000977 36.80810547 C66.75119369 37.82090246 65.49376977 38.83543328 64.23803711 39.85205078 C63.07629198 40.7874235 61.90867537 41.71555794 60.73486328 42.63574219 C59.54616335 43.57050931 58.37318371 44.52551784 57.21435547 45.49707031 C54.26370419 47.84496996 52.75924576 48.97890984 48.90625 49.0859375 C45.41094599 47.77989648 43.28715117 46.10681719 40.5 43.625 C39.44697905 42.70771873 38.39222174 41.79242782 37.3359375 40.87890625 C36.7903418 40.40340332 36.24474609 39.92790039 35.68261719 39.43798828 C32.89861809 37.05874355 30.01440497 34.81161154 27.125 32.5625 C26.54911133 32.11293945 25.97322266 31.66337891 25.37988281 31.20019531 C24.19857561 30.27805578 23.01693136 29.35634787 21.83496094 28.43505859 C19.90812651 26.92814897 17.98846374 25.41247563 16.0703125 23.89453125 C15.43077637 23.38913818 14.79124023 22.88374512 14.13232422 22.36303711 C12.90121746 21.38980809 11.671035 20.41540842 10.44189453 19.43969727 C7.37045638 16.99238729 7.37045638 16.99238729 4 15 Z " fill="#FFFFFF" transform="translate(0,14)"/>
</svg>
